<svg width="1200" height="630" viewBox="0 0 1200 630" fill="none" xmlns="http://www.w3.org/2000/svg">
  <rect width="1200" height="630" rx="48" fill="#F4F4F5"/>
  <rect x="92" y="98" width="1016" height="434" rx="40" fill="#FFFFFF" stroke="#E4E4E7" stroke-width="4"/>
  <rect x="150" y="154" width="420" height="322" rx="36" fill="#FFFFFF" stroke="#E4E4E7" stroke-width="4"/>
  <rect x="630" y="154" width="420" height="322" rx="36" fill="#FFFFFF" stroke="#E4E4E7" stroke-width="4"/>

  <text x="170" y="138" fill="#18181B" font-size="44" font-family="ui-sans-serif, system-ui, -apple-system">Before</text>
  <text x="650" y="138" fill="#18181B" font-size="44" font-family="ui-sans-serif, system-ui, -apple-system">After</text>

  <!-- left (blue) -->
  <rect x="182" y="202" width="356" height="44" rx="22" fill="#FFFFFF" stroke="#93C5FD" stroke-width="4"/>
  <rect x="182" y="264" width="356" height="68" rx="22" fill="#2563EB"/>
  <rect x="182" y="352" width="356" height="96" rx="26" fill="#FFFFFF" stroke="#E4E4E7" stroke-width="4"/>
  <rect x="202" y="372" width="88" height="56" rx="16" fill="#E4E4E7"/>
  <rect x="306" y="378" width="212" height="14" rx="7" fill="#A1A1AA"/>
  <rect x="306" y="404" width="170" height="12" rx="6" fill="#D4D4D8"/>

  <!-- right (green) -->
  <rect x="662" y="202" width="356" height="44" rx="22" fill="#FAFAFA" stroke="#E4E4E7" stroke-width="4"/>
  <rect x="662" y="264" width="356" height="68" rx="22" fill="#065F46"/>
  <rect x="662" y="352" width="356" height="96" rx="26" fill="#FFFFFF" stroke="#E4E4E7" stroke-width="4"/>
  <rect x="682" y="372" width="88" height="56" rx="16" fill="#E4E4E7"/>
  <rect x="786" y="378" width="212" height="14" rx="7" fill="#18181B" opacity="0.55"/>
  <rect x="786" y="404" width="170" height="12" rx="6" fill="#D4D4D8"/>

  <text x="170" y="560" fill="#52525B" font-size="26" font-family="ui-sans-serif, system-ui, -apple-system">
    Mini UI Showcase (No screenshots)
  </text>
</svg>
